<?xml version="1.0" standalone="no"?>
<!DOCTYPE svg PUBLIC "-//W3C//DTD SVG 20010904//EN"
 "http://www.w3.org/TR/2001/REC-SVG-20010904/DTD/svg10.dtd">
<svg version="1.0" xmlns="http://www.w3.org/2000/svg"
 width="260.000000pt" height="260.000000pt" viewBox="0 0 260.000000 260.000000"
 preserveAspectRatio="xMidYMid meet">
<metadata>
Created by potrace 1.11, written by Peter Selinger 2001-2013
</metadata>
<g transform="translate(0.000000,260.000000) scale(0.100000,-0.100000)"
fill="#000000" stroke="none">
<path d="M409 2303 c0 -5 -2 -16 -4 -25 -2 -10 -6 -68 -10 -130 -3 -62 -8
-124 -10 -138 -2 -14 -7 -77 -10 -140 -4 -63 -8 -131 -10 -150 -2 -19 -6 -82
-10 -140 -3 -58 -8 -121 -10 -140 -2 -19 -7 -84 -11 -145 -3 -60 -8 -126 -9
-145 -1 -19 -6 -82 -9 -140 -4 -58 -8 -121 -11 -140 -2 -19 -7 -84 -11 -145
-4 -60 -8 -126 -9 -145 -2 -19 -6 -89 -10 -155 -4 -66 -9 -123 -12 -127 -2 -5
54 -8 124 -8 127 0 129 0 130 23 0 30 13 242 18 297 2 25 7 97 10 160 4 63 8
140 10 170 2 30 6 100 10 155 3 55 7 136 10 180 11 184 27 550 29 672 1 45 5
85 9 89 4 4 7 -1 7 -11 0 -10 7 -41 15 -69 8 -28 35 -123 60 -211 41 -142 282
-878 304 -930 5 -11 46 -132 92 -268 l83 -248 100 3 101 3 182 500 c246 675
393 1102 418 1213 4 18 9 31 12 28 3 -2 6 -94 8 -203 3 -109 6 -238 9 -288 3
-49 8 -151 11 -225 4 -74 8 -160 10 -190 2 -30 7 -111 10 -180 4 -69 8 -141
10 -160 2 -19 6 -98 10 -175 4 -77 9 -156 10 -175 2 -19 5 -63 6 -97 l2 -63
129 0 129 0 -5 73 c-3 39 -8 115 -11 167 -8 141 -13 224 -20 330 -4 52 -8 118
-10 145 -2 28 -6 100 -10 160 -3 61 -8 137 -10 170 -2 33 -7 105 -10 160 -4
55 -8 129 -10 165 -3 36 -7 108 -10 160 -3 52 -7 118 -10 145 -2 28 -7 104
-11 170 -4 66 -7 131 -8 145 l-2 25 -168 0 -168 0 -29 -80 c-17 -44 -50 -134
-74 -200 -24 -66 -87 -237 -140 -380 -116 -310 -237 -668 -291 -857 -21 -76
-42 -132 -45 -125 -4 7 -25 80 -48 163 -44 163 -148 485 -254 784 -36 102
-106 300 -155 440 l-90 255 -166 3 c-91 1 -166 -1 -167 -5z"/>
</g>
</svg>
